<svg width="110" height="110" viewBox="0 0 110 110" fill="none" xmlns="http://www.w3.org/2000/svg">
<g clip-path="url(#clip0)">
<path d="M91.7374 0H18.2617C11.3909 0 5.80078 5.59013 5.80078 12.4609V91.9523C5.80078 95.5064 8.69194 98.3976 12.2461 98.3976H40.462C41.6486 98.3976 42.6104 97.4358 42.6104 96.2492C42.6104 95.0625 41.6486 94.1007 40.462 94.1007H12.2461C11.0611 94.1007 10.0977 93.1373 10.0977 91.9523V12.4609C10.0977 7.95929 13.7601 4.29688 18.2617 4.29688H82.3355C80.433 6.4856 79.2765 9.33983 79.2765 12.4609V81.6977C79.2765 83.68 77.6643 85.2921 75.6821 85.2921C74.1328 85.2921 72.7624 84.3044 72.2714 82.8349L69.0337 73.1199C68.1197 70.3773 65.5626 68.5352 62.6723 68.5352C58.9746 68.5352 55.9668 71.543 55.9668 75.2398V76.9132H44.831C43.6443 76.9132 42.6826 77.8758 42.6826 79.0617C42.6826 80.2483 43.6443 81.2101 44.831 81.2101H55.9668V91.8986C55.9668 95.0709 56.5853 98.1643 57.8056 101.092L60.9661 108.677C61.3102 109.502 62.1083 110 62.9501 110C63.2253 110 63.5056 109.947 63.775 109.835C64.8711 109.378 65.3889 108.12 64.9323 107.025L61.7718 99.4391C60.7714 97.038 60.2637 94.501 60.2637 91.8994V75.2406C60.2637 73.9121 61.3438 72.832 62.6723 72.832C63.7104 72.832 64.6294 73.4933 64.9575 74.4786L68.1953 84.1936C69.2712 87.4204 72.2798 89.589 75.6821 89.589C80.0335 89.589 83.5734 86.0491 83.5734 81.6977V44.8629L86.4444 47.728C91.5671 52.8407 94.3877 59.6426 94.3877 66.8793V89.7174C94.3877 95.6332 93.0475 101.585 90.513 106.93C90.0044 108.002 90.4618 109.283 91.5335 109.792C92.6052 110.3 93.8867 109.844 94.3953 108.771C97.2009 102.855 98.6846 96.2659 98.6846 89.7174V66.8793C98.6846 58.4929 95.4158 50.6116 89.4799 44.6867L83.5734 38.791V36.7383H97.7531C101.307 36.7383 104.198 33.8471 104.198 30.293V12.4609C104.198 5.59013 98.6091 0 91.7374 0V0ZM99.9015 30.293C99.9015 31.4771 98.9381 32.4414 97.7531 32.4414H83.5734V12.4609C83.5734 7.95929 87.2358 4.29688 91.7374 4.29688C96.2391 4.29688 99.9015 7.95929 99.9015 12.4609V30.293Z" fill="#04458F"/>
<path d="M49.8438 94.1007C49.2781 94.1007 48.7242 94.3307 48.3247 94.7301C47.9253 95.1305 47.6953 95.6844 47.6953 96.2492C47.6953 96.8148 47.9253 97.3687 48.3247 97.7682C48.7242 98.1676 49.2781 98.3976 49.8438 98.3976C50.4086 98.3976 50.9624 98.1676 51.3628 97.7682C51.7622 97.3687 51.9922 96.8148 51.9922 96.2492C51.9922 95.6844 51.7622 95.1305 51.3628 94.7301C50.9624 94.3307 50.4086 94.1007 49.8438 94.1007Z" fill="#04458F"/>
<path d="M35.3779 15.8984C35.3779 13.5293 33.4502 11.6016 31.081 11.6016H21.6279C19.2579 11.6016 17.331 13.5293 17.331 15.8984V25.3516C17.331 27.7207 19.2579 29.6484 21.6279 29.6484H31.081C33.4502 29.6484 35.3779 27.7207 35.3779 25.3516V15.8984ZM31.081 25.3516H21.6279V15.8984H31.081L31.0835 25.3516C31.0835 25.3516 31.0827 25.3516 31.081 25.3516Z" fill="#04458F"/>
<path d="M35.3779 41.6797C35.3779 39.3105 33.4502 37.3828 31.081 37.3828H21.6279C19.2579 37.3828 17.331 39.3105 17.331 41.6797V51.1328C17.331 53.502 19.2579 55.4297 21.6279 55.4297H31.081C33.4502 55.4297 35.3779 53.502 35.3779 51.1328V41.6797ZM31.081 51.1328H21.6279V41.6797H31.081L31.0835 51.1328C31.0835 51.1328 31.0827 51.1328 31.081 51.1328Z" fill="#04458F"/>
<path d="M31.081 63.1641H21.6279C19.2579 63.1641 17.331 65.0909 17.331 67.4609V76.9132C17.331 79.2832 19.2579 81.2101 21.6279 81.2101H31.081C33.4502 81.2101 35.3779 79.2832 35.3779 76.9132V67.4609C35.3779 65.0909 33.4502 63.1641 31.081 63.1641ZM31.081 76.9132H21.6279V67.4609H31.081L31.0835 76.9132C31.0835 76.9132 31.0827 76.9132 31.081 76.9132Z" fill="#04458F"/>
<path d="M69.4659 29.6484C70.6525 29.6484 71.6143 28.6867 71.6143 27.5C71.6143 26.3133 70.6525 25.3516 69.4659 25.3516H54.6551C53.4684 25.3516 52.5066 26.3133 52.5066 27.5C52.5066 28.6867 53.4684 29.6484 54.6551 29.6484H69.4659Z" fill="#04458F"/>
<path d="M44.831 29.6484C45.3967 29.6484 45.9505 29.4185 46.35 29.019C46.7495 28.6195 46.9794 28.0648 46.9794 27.5C46.9794 26.9352 46.7495 26.3805 46.35 25.981C45.9505 25.5815 45.3967 25.3516 44.831 25.3516C44.2637 25.3516 43.7115 25.5815 43.312 25.981C42.9108 26.3805 42.6826 26.9352 42.6826 27.5C42.6826 28.0648 42.9108 28.6195 43.312 29.019C43.7115 29.4185 44.2637 29.6484 44.831 29.6484Z" fill="#04458F"/>
<path d="M44.8302 55.4297H69.4659C70.6525 55.4297 71.6143 54.4679 71.6143 53.2812C71.6143 52.0946 70.6525 51.1328 69.4659 51.1328H44.8302C43.6443 51.1328 42.6817 52.0946 42.6817 53.2812C42.6817 54.4679 43.6443 55.4297 44.8302 55.4297Z" fill="#04458F"/>
</g>
<defs>
<clipPath id="clip0">
<rect width="110" height="110" fill="white"/>
</clipPath>
</defs>
</svg>
